<svg xmlns="http://www.w3.org/2000/svg" width="980" height="520" viewBox="0 0 980 520">
<rect width="100%" height="100%" fill="#ffffff"/>
<style>text{font-family:Arial,Helvetica,sans-serif;fill:#111827}.axis{stroke:#9ca3af;stroke-width:1}.grid{stroke:#e5e7eb;stroke-width:1}.legend{font-size:13px}.tick{font-size:12px;fill:#4b5563}.title{font-size:20px;font-weight:700}.label{font-size:13px;fill:#374151}</style>
<text x="78.0" y="34.0" text-anchor="start" class="title">MoLingo Layer FID_TMR Trend</text>
<text x="78.0" y="56.0" text-anchor="start" class="label">FID_TMR lower is better</text>
<line x1="78" y1="70.0" x2="942" y2="70.0" class="grid"/>
<text x="68.0" y="74.0" text-anchor="end" class="tick">8.04</text>
<line x1="78" y1="163.0" x2="942" y2="163.0" class="grid"/>
<text x="68.0" y="167.0" text-anchor="end" class="tick">6.82</text>
<line x1="78" y1="256.0" x2="942" y2="256.0" class="grid"/>
<text x="68.0" y="260.0" text-anchor="end" class="tick">5.6</text>
<line x1="78" y1="349.0" x2="942" y2="349.0" class="grid"/>
<text x="68.0" y="353.0" text-anchor="end" class="tick">4.39</text>
<line x1="78" y1="442.0" x2="942" y2="442.0" class="grid"/>
<text x="68.0" y="446.0" text-anchor="end" class="tick">3.17</text>
<line x1="78" y1="442" x2="942" y2="442" class="axis"/>
<line x1="78" y1="70" x2="78" y2="442" class="axis"/>
<line x1="78.0" y1="442" x2="78.0" y2="447" class="axis"/>
<text x="78.0" y="464.0" text-anchor="middle" class="tick">5</text>
<line x1="510.0" y1="442" x2="510.0" y2="447" class="axis"/>
<text x="510.0" y="464.0" text-anchor="middle" class="tick">10</text>
<line x1="942.0" y1="442" x2="942.0" y2="447" class="axis"/>
<text x="942.0" y="464.0" text-anchor="middle" class="tick">15</text>
<text x="490.0" y="494.0" text-anchor="middle" class="label">Layer</text>
<polyline fill="none" stroke="#2563eb" stroke-width="2.6" points="78.0,416.3 510.0,412.2 942.0,344.4"/>
<circle cx="78.0" cy="416.3" r="3" fill="#2563eb"/>
<circle cx="510.0" cy="412.2" r="3" fill="#2563eb"/>
<circle cx="942.0" cy="344.4" r="3" fill="#2563eb"/>
<rect x="78" y="468" width="14" height="14" fill="#2563eb"/>
<text x="98.0" y="480.0" text-anchor="start" class="legend">SA</text>
<polyline fill="none" stroke="#059669" stroke-width="2.6" points="78.0,403.4 510.0,405.3 942.0,388.4"/>
<circle cx="78.0" cy="403.4" r="3" fill="#059669"/>
<circle cx="510.0" cy="405.3" r="3" fill="#059669"/>
<circle cx="942.0" cy="388.4" r="3" fill="#059669"/>
<rect x="198" y="468" width="14" height="14" fill="#059669"/>
<text x="218.0" y="480.0" text-anchor="start" class="legend">CA</text>
<polyline fill="none" stroke="#d97706" stroke-width="2.6" points="78.0,409.5 510.0,398.7 942.0,336.5"/>
<circle cx="78.0" cy="409.5" r="3" fill="#d97706"/>
<circle cx="510.0" cy="398.7" r="3" fill="#d97706"/>
<circle cx="942.0" cy="336.5" r="3" fill="#d97706"/>
<rect x="318" y="468" width="14" height="14" fill="#d97706"/>
<text x="338.0" y="480.0" text-anchor="start" class="legend">CFG_SA</text>
<polyline fill="none" stroke="#dc2626" stroke-width="2.6" points="78.0,397.4 510.0,405.8 942.0,95.7"/>
<circle cx="78.0" cy="397.4" r="3" fill="#dc2626"/>
<circle cx="510.0" cy="405.8" r="3" fill="#dc2626"/>
<circle cx="942.0" cy="95.7" r="3" fill="#dc2626"/>
<rect x="438" y="468" width="14" height="14" fill="#dc2626"/>
<text x="458.0" y="480.0" text-anchor="start" class="legend">CFG_CA</text>
</svg>